<svg width="79" height="89" viewBox="0 0 79 89" fill="none" xmlns="http://www.w3.org/2000/svg">
<path d="M77.0428 53.9662L66.0113 65.1133L55.5135 75.7296L54.0901 77.1451L49.8198 81.3916L46.0833 85.1074L44.3041 86.8767L44.1261 87.0537C42.1689 89 39.1442 89.3539 36.6532 88.2922C35.9415 87.9384 35.4077 87.5845 34.8739 87.0537L33.8063 86.169L20.2838 72.5447L1.95722 53.9662C0.177941 52.1968 -0.355843 49.7197 0.177941 47.4195C0.355869 46.8887 0.533797 46.3579 0.711725 46.004C0.889653 45.4732 1.42344 44.9423 1.77929 44.4115L28.1126 18.0477C22.9527 26.3638 17.437 36.8032 17.437 43.173C17.437 50.9583 21.5293 57.8588 27.5788 61.7515C30.9595 63.8748 35.0518 65.1133 39.3221 65.1133C51.4212 65.1133 61.2072 55.2048 61.2072 42.996C61.2072 36.8032 55.6915 26.3638 50.5315 18.0477L76.6869 44.4115C79.5338 47.0656 79.5338 51.3121 77.0428 53.9662Z" fill="#5BBDE2"/>
<path d="M77.0429 53.9662L66.0113 65.1133C61.2073 67.9443 55.3357 69.5368 49.2861 69.5368C41.1014 69.5368 33.6285 66.5288 27.7568 61.5746C31.1375 63.6978 35.2298 64.9364 39.5001 64.9364C51.5992 64.9364 61.3852 55.0278 61.3852 42.8191C61.3852 36.6262 55.8694 26.1869 50.7095 17.8708L76.8649 44.2346C79.5339 47.0656 79.5339 51.3121 77.0429 53.9662Z" fill="#1162A1"/>
<path d="M55.5136 9.2008C52.3109 3.53877 46.4393 0.176938 39.8559 0C39.5001 0 39.3222 0 38.9663 0C32.383 0.176938 26.5114 3.53877 23.3087 9.2008C19.928 15.0398 19.928 21.9404 23.1307 27.7793L36.6532 52.3738C37.187 53.4354 38.2546 53.9662 39.5001 53.9662C40.7456 53.9662 41.8132 53.4354 42.3469 52.3738L55.8695 27.7793C59.0722 21.9404 58.8942 15.0398 55.5136 9.2008ZM39.5001 24.5944C35.2298 24.5944 31.8492 21.2326 31.8492 16.9861C31.8492 12.7396 35.2298 9.37773 39.5001 9.37773C43.7704 9.37773 47.151 12.7396 47.151 16.9861C47.151 21.2326 43.7704 24.5944 39.5001 24.5944Z" fill="#ED2024"/>
</svg>
