<svg xmlns="http://www.w3.org/2000/svg" xmlns:xlink="http://www.w3.org/1999/xlink" version="1.1" width="256" height="256" viewBox="0 0 256 256" xml:space="preserve">

<defs>
</defs>
<g style="stroke: none; stroke-width: 0; stroke-dasharray: none; stroke-linecap: butt; stroke-linejoin: miter; stroke-miterlimit: 10; fill: none; fill-rule: nonzero; opacity: 1;" transform="translate(107.77898832684825 107.77898832684822) scale(0.44 0.44)" >
	<circle cx="29.104" cy="74.414" r="10.104" style="stroke: none; stroke-width: 1; stroke-dasharray: none; stroke-linecap: butt; stroke-linejoin: miter; stroke-miterlimit: 10; fill: rgb(51,41,41); fill-rule: nonzero; opacity: 1;" transform="  matrix(1 0 0 1 0 0) "/>
	<circle cx="29.099000000000004" cy="74.40899999999999" r="5.089" style="stroke: none; stroke-width: 1; stroke-dasharray: none; stroke-linecap: butt; stroke-linejoin: miter; stroke-miterlimit: 10; fill: rgb(239,182,90); fill-rule: nonzero; opacity: 1;" transform="  matrix(1 0 0 1 0 0) "/>
	<circle cx="78.894" cy="74.414" r="10.104" style="stroke: none; stroke-width: 1; stroke-dasharray: none; stroke-linecap: butt; stroke-linejoin: miter; stroke-miterlimit: 10; fill: rgb(51,41,41); fill-rule: nonzero; opacity: 1;" transform="  matrix(1 0 0 1 0 0) "/>
	<circle cx="78.899" cy="74.40899999999999" r="5.089" style="stroke: none; stroke-width: 1; stroke-dasharray: none; stroke-linecap: butt; stroke-linejoin: miter; stroke-miterlimit: 10; fill: rgb(239,182,90); fill-rule: nonzero; opacity: 1;" transform="  matrix(1 0 0 1 0 0) "/>
	<path d="M 29.102 85.514 c -6.123 0 -11.104 -4.981 -11.104 -11.104 c 0 -6.123 4.981 -11.104 11.104 -11.104 s 11.104 4.981 11.104 11.104 C 40.206 80.532 35.225 85.514 29.102 85.514 z M 29.102 65.306 c -5.02 0 -9.104 4.084 -9.104 9.104 c 0 5.02 4.084 9.104 9.104 9.104 s 9.104 -4.084 9.104 -9.104 C 38.206 69.39 34.122 65.306 29.102 65.306 z" style="stroke: none; stroke-width: 1; stroke-dasharray: none; stroke-linecap: butt; stroke-linejoin: miter; stroke-miterlimit: 10; fill: rgb(0,0,0); fill-rule: nonzero; opacity: 1;" transform=" matrix(1 0 0 1 0 0) " stroke-linecap="round" />
	<path d="M 29.102 80.498 c -3.357 0 -6.088 -2.731 -6.088 -6.088 c 0 -3.357 2.731 -6.089 6.088 -6.089 c 3.357 0 6.089 2.731 6.089 6.089 C 35.191 77.767 32.459 80.498 29.102 80.498 z M 29.102 70.321 c -2.254 0 -4.088 1.834 -4.088 4.089 c 0 2.254 1.834 4.088 4.088 4.088 s 4.089 -1.834 4.089 -4.088 C 33.191 72.155 31.356 70.321 29.102 70.321 z" style="stroke: none; stroke-width: 1; stroke-dasharray: none; stroke-linecap: butt; stroke-linejoin: miter; stroke-miterlimit: 10; fill: rgb(0,0,0); fill-rule: nonzero; opacity: 1;" transform=" matrix(1 0 0 1 0 0) " stroke-linecap="round" />
	<path d="M 78.896 85.514 c -6.122 0 -11.104 -4.981 -11.104 -11.104 c 0 -6.123 4.981 -11.104 11.104 -11.104 C 85.019 63.306 90 68.287 90 74.41 C 90 80.532 85.019 85.514 78.896 85.514 z M 78.896 65.306 c -5.02 0 -9.104 4.084 -9.104 9.104 c 0 5.02 4.084 9.104 9.104 9.104 c 5.021 0 9.104 -4.084 9.104 -9.104 C 88 69.39 83.916 65.306 78.896 65.306 z" style="stroke: none; stroke-width: 1; stroke-dasharray: none; stroke-linecap: butt; stroke-linejoin: miter; stroke-miterlimit: 10; fill: rgb(0,0,0); fill-rule: nonzero; opacity: 1;" transform=" matrix(1 0 0 1 0 0) " stroke-linecap="round" />
	<path d="M 78.896 80.498 c -3.356 0 -6.088 -2.731 -6.088 -6.088 c 0 -3.357 2.731 -6.089 6.088 -6.089 c 3.357 0 6.089 2.731 6.089 6.089 C 84.984 77.767 82.253 80.498 78.896 80.498 z M 78.896 70.321 c -2.254 0 -4.088 1.834 -4.088 4.089 c 0 2.254 1.834 4.088 4.088 4.088 c 2.255 0 4.089 -1.834 4.089 -4.088 C 82.984 72.155 81.15 70.321 78.896 70.321 z" style="stroke: none; stroke-width: 1; stroke-dasharray: none; stroke-linecap: butt; stroke-linejoin: miter; stroke-miterlimit: 10; fill: rgb(0,0,0); fill-rule: nonzero; opacity: 1;" transform=" matrix(1 0 0 1 0 0) " stroke-linecap="round" />
	<path d="M 5.306 30.34 h 20.476 c 2.378 0 4.306 1.928 4.306 4.306 v 18.763 H 5.306 C 2.928 53.409 1 51.481 1 49.103 V 34.646 C 1 32.268 2.928 30.34 5.306 30.34 z" style="stroke: none; stroke-width: 1; stroke-dasharray: none; stroke-linecap: butt; stroke-linejoin: miter; stroke-miterlimit: 10; fill: rgb(255,155,36); fill-rule: nonzero; opacity: 1;" transform=" matrix(1 0 0 1 0 0) " stroke-linecap="round" />
	<path d="M 31.089 54.409 H 5.307 C 2.38 54.409 0 52.028 0 49.103 V 34.646 c 0 -2.926 2.38 -5.307 5.307 -5.307 h 20.476 c 2.926 0 5.306 2.38 5.306 5.307 V 54.409 z M 5.307 31.34 C 3.483 31.34 2 32.823 2 34.646 v 14.456 c 0 1.823 1.483 3.307 3.307 3.307 h 23.782 V 34.646 c 0 -1.823 -1.483 -3.307 -3.306 -3.307 H 5.307 z" style="stroke: none; stroke-width: 1; stroke-dasharray: none; stroke-linecap: butt; stroke-linejoin: miter; stroke-miterlimit: 10; fill: rgb(0,0,0); fill-rule: nonzero; opacity: 1;" transform=" matrix(1 0 0 1 0 0) " stroke-linecap="round" />
	<path d="M 73.732 35.45 h 0.705 c 0.858 0 1.554 0.696 1.554 1.554 v 7.28 c 0 0.858 -0.696 1.554 -1.554 1.554 h -0.705 c -2.868 0 -5.194 -2.325 -5.194 -5.194 v 0 C 68.539 37.776 70.864 35.45 73.732 35.45 z" style="stroke: none; stroke-width: 1; stroke-dasharray: none; stroke-linecap: butt; stroke-linejoin: miter; stroke-miterlimit: 10; fill: rgb(255,155,36); fill-rule: nonzero; opacity: 1;" transform=" matrix(1 0 0 1 0 0) " stroke-linecap="round" />
	<path d="M 15.217 73.242 l 54.085 0 c 0 -5.073 6.394 -10.839 10.839 -10.839 l -14.99 -26.29 h -6.078 l 5.324 25.151 c 0.24 1.133 -0.049 2.313 -0.784 3.208 h 0 c -0.724 0.881 -1.804 1.391 -2.944 1.391 H 44.438 c -1.921 0 -3.478 -1.557 -3.478 -3.478 v -3.325 c 0 -3.12 -2.53 -5.65 -5.65 -5.65 h -8.188 c -5.545 0 -10.506 3.447 -12.44 8.644 l -2.525 6.785 C 11.363 70.972 12.941 73.242 15.217 73.242 z" style="stroke: none; stroke-width: 1; stroke-dasharray: none; stroke-linecap: butt; stroke-linejoin: miter; stroke-miterlimit: 10; fill: rgb(215,28,34); fill-rule: nonzero; opacity: 1;" transform=" matrix(1 0 0 1 0 0) " stroke-linecap="round" />
	<path d="M 74.437 46.838 h -0.704 c -3.415 0 -6.193 -2.778 -6.193 -6.194 s 2.778 -6.194 6.193 -6.194 h 0.704 c 1.408 0 2.554 1.146 2.554 2.554 v 7.28 C 76.99 45.692 75.845 46.838 74.437 46.838 z M 73.732 36.45 c -2.313 0 -4.193 1.881 -4.193 4.194 s 1.881 4.194 4.193 4.194 h 0.704 c 0.306 0 0.554 -0.249 0.554 -0.554 v -7.28 c 0 -0.305 -0.248 -0.554 -0.554 -0.554 H 73.732 z" style="stroke: none; stroke-width: 1; stroke-dasharray: none; stroke-linecap: butt; stroke-linejoin: miter; stroke-miterlimit: 10; fill: rgb(0,0,0); fill-rule: nonzero; opacity: 1;" transform=" matrix(1 0 0 1 0 0) " stroke-linecap="round" />
	<path d="M 70.302 74.242 H 15.217 c -1.396 0 -2.706 -0.685 -3.503 -1.831 c -0.796 -1.147 -0.981 -2.612 -0.494 -3.921 l 2.525 -6.785 c 2.068 -5.561 7.444 -9.296 13.377 -9.296 h 8.188 c 3.667 0 6.65 2.983 6.65 6.65 v 3.325 c 0 1.366 1.111 2.478 2.478 2.478 h 16.231 c 0.845 0 1.636 -0.374 2.172 -1.026 c 0.545 -0.664 0.755 -1.525 0.577 -2.365 L 57.84 35.113 h 7.892 l 16.131 28.291 h -1.722 c -3.885 0 -9.839 5.277 -9.839 9.839 V 74.242 z M 27.122 54.409 c -5.102 0 -9.724 3.212 -11.503 7.993 l -2.525 6.785 c -0.262 0.705 -0.167 1.464 0.263 2.082 c 0.43 0.618 1.107 0.973 1.86 0.973 H 68.37 c 0.65 -4.801 5.793 -9.62 10.162 -10.642 L 64.569 37.113 h -4.263 l 5.068 23.944 c 0.305 1.437 -0.056 2.912 -0.989 4.049 c -0.917 1.116 -2.271 1.757 -3.717 1.757 H 44.438 c -2.469 0 -4.478 -2.009 -4.478 -4.478 V 59.06 c 0 -2.564 -2.086 -4.65 -4.65 -4.65 H 27.122 z" style="stroke: none; stroke-width: 1; stroke-dasharray: none; stroke-linecap: butt; stroke-linejoin: miter; stroke-miterlimit: 10; fill: rgb(0,0,0); fill-rule: nonzero; opacity: 1;" transform=" matrix(1 0 0 1 0 0) " stroke-linecap="round" />
	<path d="M 88.805 69.025 c -0.963 -3.019 -3.184 -5.616 -6.333 -6.943 c -5.716 -2.409 -12.304 0.272 -14.713 5.988 c -1.19 2.824 -1.134 5.86 -0.087 8.5 C 72.22 69.714 80.826 66.557 88.805 69.025 z" style="stroke: none; stroke-width: 1; stroke-dasharray: none; stroke-linecap: butt; stroke-linejoin: miter; stroke-miterlimit: 10; fill: rgb(215,28,34); fill-rule: nonzero; opacity: 1;" transform=" matrix(1 0 0 1 0 0) " stroke-linecap="round" />
	<path d="M 67.673 77.57 c -0.034 0 -0.069 -0.002 -0.104 -0.006 c -0.371 -0.038 -0.688 -0.279 -0.826 -0.625 c -1.19 -3.001 -1.156 -6.289 0.095 -9.258 c 2.619 -6.214 9.804 -9.14 16.023 -6.521 c 3.293 1.389 5.807 4.145 6.896 7.562 c 0.112 0.354 0.02 0.743 -0.243 1.008 c -0.262 0.265 -0.649 0.361 -1.006 0.251 c -7.456 -2.305 -15.683 0.63 -20.003 7.143 C 68.319 77.404 68.006 77.57 67.673 77.57 z M 78.111 62.194 c -1.307 0 -2.612 0.254 -3.858 0.761 c -2.531 1.03 -4.51 2.985 -5.571 5.504 c -0.797 1.889 -1.003 3.933 -0.618 5.908 c 4.595 -5.553 11.972 -8.188 19.04 -6.801 c -1.098 -2.035 -2.858 -3.652 -5.02 -4.563 C 80.806 62.465 79.458 62.194 78.111 62.194 z" style="stroke: none; stroke-width: 1; stroke-dasharray: none; stroke-linecap: butt; stroke-linejoin: miter; stroke-miterlimit: 10; fill: rgb(0,0,0); fill-rule: nonzero; opacity: 1;" transform=" matrix(1 0 0 1 0 0) " stroke-linecap="round" />
	<path d="M 59.371 15.531 c 0 5.548 -4.497 10.045 -10.045 10.045 s -11.057 -7.497 -11.057 -13.045 s 5.509 -7.045 11.057 -7.045 S 59.371 9.983 59.371 15.531 z" style="stroke: none; stroke-width: 1; stroke-dasharray: none; stroke-linecap: butt; stroke-linejoin: miter; stroke-miterlimit: 10; fill: rgb(255,155,36); fill-rule: nonzero; opacity: 1;" transform=" matrix(1 0 0 1 0 0) " stroke-linecap="round" />
	<path d="M 51.14 25.41 c 4.164 -0.76 7.431 -4.084 8.103 -8.278 l -7.584 -1.82 c -1.666 -0.4 -3.142 1.151 -2.66 2.795 L 51.14 25.41 z" style="stroke: none; stroke-width: 1; stroke-dasharray: none; stroke-linecap: butt; stroke-linejoin: miter; stroke-miterlimit: 10; fill: rgb(246,183,125); fill-rule: nonzero; opacity: 1;" transform=" matrix(1 0 0 1 0 0) " stroke-linecap="round" />
	<path d="M 45.33 34.24 L 45.33 34.24 c 0 3.77 3.056 6.825 6.825 6.825 h 5.846 c 1.491 0 2.699 -1.209 2.699 -2.699 V 33.59 l -4.425 0 c -1.202 0 -2.26 -0.763 -2.669 -1.894 c -1.117 -3.095 -4.647 -6.719 -9.055 -6.719 h 0 c -7.992 0.013 -14.463 6.495 -14.463 14.487 v 5.647 h 9.831 c 1.597 0 3.108 0.368 4.453 1.024 l 0 0.001 c -0.04 -2.083 1.276 -4.166 3.947 -6.25" style="stroke: none; stroke-width: 1; stroke-dasharray: none; stroke-linecap: butt; stroke-linejoin: miter; stroke-miterlimit: 10; fill: rgb(215,28,34); fill-rule: nonzero; opacity: 1;" transform=" matrix(1 0 0 1 0 0) " stroke-linecap="round" />
	<path d="M 30.089 53.409 h 5.221 c 3.12 0 5.65 2.53 5.65 5.65 v 3.325 c 0 1.921 1.557 3.478 3.478 3.478 h 5.656 V 55.285 c 0 -5.619 -4.555 -10.173 -10.173 -10.173 h -9.831 V 53.409 z" style="stroke: none; stroke-width: 1; stroke-dasharray: none; stroke-linecap: butt; stroke-linejoin: miter; stroke-miterlimit: 10; fill: rgb(59,101,168); fill-rule: nonzero; opacity: 1;" transform=" matrix(1 0 0 1 0 0) " stroke-linecap="round" />
	<path d="M 63.394 33.59 h -2.694 v 4.504 c 1.561 0.093 2.993 0.379 4.233 0.953 c 0.527 0.244 1.129 -0.123 1.129 -0.703 v -2.085 C 66.063 34.785 64.868 33.59 63.394 33.59 z" style="stroke: none; stroke-width: 1; stroke-dasharray: none; stroke-linecap: butt; stroke-linejoin: miter; stroke-miterlimit: 10; fill: rgb(246,183,125); fill-rule: nonzero; opacity: 1;" transform=" matrix(1 0 0 1 0 0) " stroke-linecap="round" />
	<path d="M 49.325 26.576 c -6.096 0 -12.057 -8.042 -12.057 -14.045 c 0 -5.188 4.282 -8.045 12.057 -8.045 c 6.091 0 11.046 4.955 11.046 11.045 S 55.416 26.576 49.325 26.576 z M 49.325 6.486 c -4.588 0 -10.057 1.049 -10.057 6.045 c 0 5.037 5.068 12.045 10.057 12.045 c 4.988 0 9.046 -4.058 9.046 -9.045 C 58.371 10.543 54.313 6.486 49.325 6.486 z" style="stroke: none; stroke-width: 1; stroke-dasharray: none; stroke-linecap: butt; stroke-linejoin: miter; stroke-miterlimit: 10; fill: rgb(0,0,0); fill-rule: nonzero; opacity: 1;" transform=" matrix(1 0 0 1 0 0) " stroke-linecap="round" />
	<path d="M 50.434 26.555 l -2.396 -8.168 c -0.327 -1.119 -0.043 -2.291 0.761 -3.135 s 1.96 -1.188 3.093 -0.913 l 8.484 2.036 l -0.146 0.915 c -0.738 4.607 -4.319 8.266 -8.91 9.104 L 50.434 26.555 z M 51.122 16.247 c -0.452 0 -0.753 0.257 -0.875 0.384 c -0.146 0.154 -0.469 0.58 -0.289 1.194 l 1.875 6.396 c 3.04 -0.874 5.412 -3.291 6.229 -6.345 l -6.638 -1.593 C 51.317 16.258 51.217 16.247 51.122 16.247 z" style="stroke: none; stroke-width: 1; stroke-dasharray: none; stroke-linecap: butt; stroke-linejoin: miter; stroke-miterlimit: 10; fill: rgb(0,0,0); fill-rule: nonzero; opacity: 1;" transform=" matrix(1 0 0 1 0 0) " stroke-linecap="round" />
	<path d="M 65.278 40.124 c -0.259 0 -0.52 -0.056 -0.764 -0.169 c -1.058 -0.489 -2.324 -0.771 -3.873 -0.863 c -0.529 -0.031 -0.941 -0.469 -0.941 -0.998 V 33.59 c 0 -0.552 0.447 -1 1 -1 h 2.694 c 2.023 0 3.669 1.646 3.669 3.669 v 2.085 c 0 0.609 -0.306 1.169 -0.817 1.497 C 65.951 40.029 65.616 40.124 65.278 40.124 z M 61.7 37.176 c 1.269 0.143 2.378 0.419 3.363 0.835 v -1.752 c 0 -0.92 -0.749 -1.669 -1.669 -1.669 H 61.7 V 37.176 z" style="stroke: none; stroke-width: 1; stroke-dasharray: none; stroke-linecap: butt; stroke-linejoin: miter; stroke-miterlimit: 10; fill: rgb(0,0,0); fill-rule: nonzero; opacity: 1;" transform=" matrix(1 0 0 1 0 0) " stroke-linecap="round" />
	<path d="M 44.373 47.136 c -0.15 0 -0.3 -0.033 -0.439 -0.102 c -1.254 -0.612 -2.604 -0.923 -4.014 -0.923 h -9.832 c -0.552 0 -1 -0.448 -1 -1 v -5.647 c 0 -8.526 6.936 -15.473 15.462 -15.487 c 4.764 0 8.706 3.802 9.997 7.38 c 0.267 0.738 0.961 1.233 1.728 1.233 H 60.7 c 0.553 0 1 0.448 1 1 v 4.776 c 0 2.04 -1.659 3.699 -3.699 3.699 h -5.846 c -1.359 0 -2.638 -0.348 -3.753 -0.96 c -2.042 1.72 -3.061 3.403 -3.029 5.011 c 0.006 0.349 -0.168 0.675 -0.462 0.862 C 44.748 47.083 44.561 47.136 44.373 47.136 z M 31.089 44.111 h 8.832 c 1.245 0 2.453 0.199 3.608 0.594 c 0.38 -1.632 1.458 -3.243 3.221 -4.813 c -1.49 -1.425 -2.419 -3.433 -2.419 -5.652 c 0 -0.552 0.448 -1 1 -1 s 1 0.448 1 1 c 0 3.212 2.613 5.825 5.825 5.825 h 5.846 c 0.937 0 1.699 -0.762 1.699 -1.699 V 34.59 h -3.425 c -1.606 0 -3.057 -1.026 -3.608 -2.555 c -0.908 -2.516 -4.026 -6.059 -8.115 -6.059 c -7.423 0.012 -13.463 6.063 -13.463 13.487 V 44.111 z" style="stroke: none; stroke-width: 1; stroke-dasharray: none; stroke-linecap: butt; stroke-linejoin: miter; stroke-miterlimit: 10; fill: rgb(0,0,0); fill-rule: nonzero; opacity: 1;" transform=" matrix(1 0 0 1 0 0) " stroke-linecap="round" />
	<path d="M 50.094 66.862 h -5.656 c -2.469 0 -4.478 -2.009 -4.478 -4.478 V 59.06 c 0 -2.564 -2.086 -4.65 -4.65 -4.65 h -5.221 c -0.552 0 -1 -0.447 -1 -1 v -8.298 c 0 -0.552 0.448 -1 1 -1 h 9.832 c 6.161 0 11.173 5.012 11.173 11.173 v 10.578 C 51.094 66.415 50.646 66.862 50.094 66.862 z M 31.089 52.409 h 4.221 c 3.667 0 6.65 2.983 6.65 6.65 v 3.325 c 0 1.366 1.111 2.478 2.478 2.478 h 4.656 v -9.578 c 0 -5.058 -4.115 -9.173 -9.173 -9.173 h -8.832 V 52.409 z" style="stroke: none; stroke-width: 1; stroke-dasharray: none; stroke-linecap: butt; stroke-linejoin: miter; stroke-miterlimit: 10; fill: rgb(0,0,0); fill-rule: nonzero; opacity: 1;" transform=" matrix(1 0 0 1 0 0) " stroke-linecap="round" />
</g>
</svg>